<mxfile host="app.diagrams.net" modified="2022-07-23T12:09:58.766Z" agent="5.0 (Macintosh; Intel Mac OS X 10_15_7) AppleWebKit/537.36 (KHTML, like Gecko) Chrome/103.0.0.0 Safari/537.36" etag="e-SrBkF_8GEmtz-iNP2u" version="20.1.1" type="github">
  <diagram id="juYDDhbQV2ejAXvNcZQj" name="Page-1">
    <mxGraphModel dx="946" dy="548" grid="1" gridSize="10" guides="1" tooltips="1" connect="1" arrows="1" fold="1" page="1" pageScale="1" pageWidth="827" pageHeight="1169" math="0" shadow="0">
      <root>
        <mxCell id="0" />
        <mxCell id="1" parent="0" />
        <mxCell id="WebsGutZkE8XCqcuteTi-13" style="edgeStyle=none;shape=connector;rounded=0;orthogonalLoop=1;jettySize=auto;html=1;labelBackgroundColor=default;fontFamily=Helvetica;fontSize=11;fontColor=default;endArrow=none;strokeColor=default;exitX=0.5;exitY=1;exitDx=0;exitDy=0;entryX=0;entryY=0;entryDx=0;entryDy=0;" edge="1" parent="1" source="WebsGutZkE8XCqcuteTi-1" target="WebsGutZkE8XCqcuteTi-6">
          <mxGeometry relative="1" as="geometry" />
        </mxCell>
        <mxCell id="WebsGutZkE8XCqcuteTi-16" style="edgeStyle=none;shape=connector;rounded=0;orthogonalLoop=1;jettySize=auto;html=1;entryX=0;entryY=0.5;entryDx=0;entryDy=0;labelBackgroundColor=default;fontFamily=Helvetica;fontSize=11;fontColor=default;endArrow=none;strokeColor=default;" edge="1" parent="1" source="WebsGutZkE8XCqcuteTi-1" target="WebsGutZkE8XCqcuteTi-7">
          <mxGeometry relative="1" as="geometry" />
        </mxCell>
        <mxCell id="WebsGutZkE8XCqcuteTi-18" style="edgeStyle=none;shape=connector;rounded=0;orthogonalLoop=1;jettySize=auto;html=1;entryX=0.5;entryY=0;entryDx=0;entryDy=0;labelBackgroundColor=default;fontFamily=Helvetica;fontSize=11;fontColor=default;endArrow=none;strokeColor=default;" edge="1" parent="1" source="WebsGutZkE8XCqcuteTi-1" target="WebsGutZkE8XCqcuteTi-5">
          <mxGeometry relative="1" as="geometry" />
        </mxCell>
        <mxCell id="WebsGutZkE8XCqcuteTi-1" value="Bài hát" style="rounded=0;whiteSpace=wrap;html=1;" vertex="1" parent="1">
          <mxGeometry x="120" y="120" width="120" height="40" as="geometry" />
        </mxCell>
        <mxCell id="WebsGutZkE8XCqcuteTi-2" value="Tác giả" style="rounded=0;whiteSpace=wrap;html=1;" vertex="1" parent="1">
          <mxGeometry x="470" y="120" width="120" height="40" as="geometry" />
        </mxCell>
        <mxCell id="WebsGutZkE8XCqcuteTi-3" value="Thể loại" style="rounded=0;whiteSpace=wrap;html=1;" vertex="1" parent="1">
          <mxGeometry x="120" y="320" width="120" height="40" as="geometry" />
        </mxCell>
        <mxCell id="WebsGutZkE8XCqcuteTi-4" value="Ca sĩ" style="rounded=0;whiteSpace=wrap;html=1;" vertex="1" parent="1">
          <mxGeometry x="470" y="320" width="120" height="40" as="geometry" />
        </mxCell>
        <mxCell id="WebsGutZkE8XCqcuteTi-19" style="edgeStyle=none;shape=connector;rounded=0;orthogonalLoop=1;jettySize=auto;html=1;entryX=0.5;entryY=0;entryDx=0;entryDy=0;labelBackgroundColor=default;fontFamily=Helvetica;fontSize=11;fontColor=default;endArrow=none;strokeColor=default;" edge="1" parent="1" source="WebsGutZkE8XCqcuteTi-5" target="WebsGutZkE8XCqcuteTi-3">
          <mxGeometry relative="1" as="geometry" />
        </mxCell>
        <mxCell id="WebsGutZkE8XCqcuteTi-5" value="thuộc" style="rhombus;whiteSpace=wrap;html=1;" vertex="1" parent="1">
          <mxGeometry x="140" y="210" width="80" height="80" as="geometry" />
        </mxCell>
        <mxCell id="WebsGutZkE8XCqcuteTi-14" style="edgeStyle=none;shape=connector;rounded=0;orthogonalLoop=1;jettySize=auto;html=1;exitX=1;exitY=1;exitDx=0;exitDy=0;entryX=0.5;entryY=0;entryDx=0;entryDy=0;labelBackgroundColor=default;fontFamily=Helvetica;fontSize=11;fontColor=default;endArrow=none;strokeColor=default;" edge="1" parent="1" source="WebsGutZkE8XCqcuteTi-6" target="WebsGutZkE8XCqcuteTi-4">
          <mxGeometry relative="1" as="geometry" />
        </mxCell>
        <mxCell id="WebsGutZkE8XCqcuteTi-6" value="biểu diễn&lt;br&gt;bởi" style="rhombus;whiteSpace=wrap;html=1;" vertex="1" parent="1">
          <mxGeometry x="310" y="210" width="80" height="80" as="geometry" />
        </mxCell>
        <mxCell id="WebsGutZkE8XCqcuteTi-17" style="edgeStyle=none;shape=connector;rounded=0;orthogonalLoop=1;jettySize=auto;html=1;entryX=0;entryY=0.5;entryDx=0;entryDy=0;labelBackgroundColor=default;fontFamily=Helvetica;fontSize=11;fontColor=default;endArrow=none;strokeColor=default;" edge="1" parent="1" source="WebsGutZkE8XCqcuteTi-7" target="WebsGutZkE8XCqcuteTi-2">
          <mxGeometry relative="1" as="geometry" />
        </mxCell>
        <mxCell id="WebsGutZkE8XCqcuteTi-7" value="sáng tác&lt;br&gt;bởi" style="rhombus;whiteSpace=wrap;html=1;" vertex="1" parent="1">
          <mxGeometry x="310" y="100" width="80" height="80" as="geometry" />
        </mxCell>
        <mxCell id="WebsGutZkE8XCqcuteTi-32" style="edgeStyle=none;shape=connector;rounded=0;orthogonalLoop=1;jettySize=auto;html=1;labelBackgroundColor=default;fontFamily=Helvetica;fontSize=11;fontColor=default;endArrow=none;strokeColor=default;" edge="1" parent="1" source="WebsGutZkE8XCqcuteTi-20">
          <mxGeometry relative="1" as="geometry">
            <mxPoint x="180" y="120" as="targetPoint" />
          </mxGeometry>
        </mxCell>
        <mxCell id="WebsGutZkE8XCqcuteTi-20" value="Tên BH" style="ellipse;whiteSpace=wrap;html=1;fontFamily=Helvetica;fontSize=11;fontColor=default;" vertex="1" parent="1">
          <mxGeometry x="60" y="40" width="70" height="40" as="geometry" />
        </mxCell>
        <mxCell id="WebsGutZkE8XCqcuteTi-31" style="edgeStyle=none;shape=connector;rounded=0;orthogonalLoop=1;jettySize=auto;html=1;exitX=0.5;exitY=1;exitDx=0;exitDy=0;entryX=0.5;entryY=0;entryDx=0;entryDy=0;labelBackgroundColor=default;fontFamily=Helvetica;fontSize=11;fontColor=default;endArrow=none;strokeColor=default;" edge="1" parent="1" source="WebsGutZkE8XCqcuteTi-21" target="WebsGutZkE8XCqcuteTi-1">
          <mxGeometry relative="1" as="geometry" />
        </mxCell>
        <mxCell id="WebsGutZkE8XCqcuteTi-21" value="Mã BH" style="ellipse;whiteSpace=wrap;html=1;fontFamily=Helvetica;fontSize=11;fontColor=default;" vertex="1" parent="1">
          <mxGeometry x="140" y="10" width="70" height="40" as="geometry" />
        </mxCell>
        <mxCell id="WebsGutZkE8XCqcuteTi-33" style="edgeStyle=none;shape=connector;rounded=0;orthogonalLoop=1;jettySize=auto;html=1;exitX=1;exitY=1;exitDx=0;exitDy=0;entryX=0;entryY=0.5;entryDx=0;entryDy=0;labelBackgroundColor=default;fontFamily=Helvetica;fontSize=11;fontColor=default;endArrow=none;strokeColor=default;" edge="1" parent="1" source="WebsGutZkE8XCqcuteTi-22" target="WebsGutZkE8XCqcuteTi-1">
          <mxGeometry relative="1" as="geometry" />
        </mxCell>
        <mxCell id="WebsGutZkE8XCqcuteTi-22" value="Năm sáng tác" style="ellipse;whiteSpace=wrap;html=1;fontFamily=Helvetica;fontSize=11;fontColor=default;" vertex="1" parent="1">
          <mxGeometry x="20" y="100" width="70" height="40" as="geometry" />
        </mxCell>
        <mxCell id="WebsGutZkE8XCqcuteTi-35" style="edgeStyle=none;shape=connector;rounded=0;orthogonalLoop=1;jettySize=auto;html=1;exitX=1;exitY=0;exitDx=0;exitDy=0;entryX=0.5;entryY=1;entryDx=0;entryDy=0;labelBackgroundColor=default;fontFamily=Helvetica;fontSize=11;fontColor=default;endArrow=none;strokeColor=default;" edge="1" parent="1" source="WebsGutZkE8XCqcuteTi-23" target="WebsGutZkE8XCqcuteTi-3">
          <mxGeometry relative="1" as="geometry" />
        </mxCell>
        <mxCell id="WebsGutZkE8XCqcuteTi-23" value="Tên TL" style="ellipse;whiteSpace=wrap;html=1;fontFamily=Helvetica;fontSize=11;fontColor=default;" vertex="1" parent="1">
          <mxGeometry x="100" y="390" width="70" height="40" as="geometry" />
        </mxCell>
        <mxCell id="WebsGutZkE8XCqcuteTi-34" style="edgeStyle=none;shape=connector;rounded=0;orthogonalLoop=1;jettySize=auto;html=1;exitX=1;exitY=0;exitDx=0;exitDy=0;entryX=0;entryY=0.5;entryDx=0;entryDy=0;labelBackgroundColor=default;fontFamily=Helvetica;fontSize=11;fontColor=default;endArrow=none;strokeColor=default;" edge="1" parent="1" source="WebsGutZkE8XCqcuteTi-24" target="WebsGutZkE8XCqcuteTi-3">
          <mxGeometry relative="1" as="geometry" />
        </mxCell>
        <mxCell id="WebsGutZkE8XCqcuteTi-24" value="Mã TL" style="ellipse;whiteSpace=wrap;html=1;fontFamily=Helvetica;fontSize=11;fontColor=default;" vertex="1" parent="1">
          <mxGeometry x="30" y="340" width="70" height="40" as="geometry" />
        </mxCell>
        <mxCell id="WebsGutZkE8XCqcuteTi-41" style="edgeStyle=none;shape=connector;rounded=0;orthogonalLoop=1;jettySize=auto;html=1;exitX=0;exitY=1;exitDx=0;exitDy=0;entryX=1;entryY=0.5;entryDx=0;entryDy=0;labelBackgroundColor=default;fontFamily=Helvetica;fontSize=11;fontColor=default;endArrow=none;strokeColor=default;" edge="1" parent="1" source="WebsGutZkE8XCqcuteTi-25" target="WebsGutZkE8XCqcuteTi-2">
          <mxGeometry relative="1" as="geometry" />
        </mxCell>
        <mxCell id="WebsGutZkE8XCqcuteTi-25" value="Năm sinh" style="ellipse;whiteSpace=wrap;html=1;fontFamily=Helvetica;fontSize=11;fontColor=default;" vertex="1" parent="1">
          <mxGeometry x="630" y="100" width="70" height="40" as="geometry" />
        </mxCell>
        <mxCell id="WebsGutZkE8XCqcuteTi-40" style="edgeStyle=none;shape=connector;rounded=0;orthogonalLoop=1;jettySize=auto;html=1;labelBackgroundColor=default;fontFamily=Helvetica;fontSize=11;fontColor=default;endArrow=none;strokeColor=default;" edge="1" parent="1" source="WebsGutZkE8XCqcuteTi-26">
          <mxGeometry relative="1" as="geometry">
            <mxPoint x="530" y="120" as="targetPoint" />
          </mxGeometry>
        </mxCell>
        <mxCell id="WebsGutZkE8XCqcuteTi-26" value="Mã TG" style="ellipse;whiteSpace=wrap;html=1;fontFamily=Helvetica;fontSize=11;fontColor=default;" vertex="1" parent="1">
          <mxGeometry x="570" y="40" width="70" height="40" as="geometry" />
        </mxCell>
        <mxCell id="WebsGutZkE8XCqcuteTi-39" style="edgeStyle=none;shape=connector;rounded=0;orthogonalLoop=1;jettySize=auto;html=1;exitX=0.5;exitY=1;exitDx=0;exitDy=0;entryX=0.5;entryY=0;entryDx=0;entryDy=0;labelBackgroundColor=default;fontFamily=Helvetica;fontSize=11;fontColor=default;endArrow=none;strokeColor=default;" edge="1" parent="1" source="WebsGutZkE8XCqcuteTi-27" target="WebsGutZkE8XCqcuteTi-2">
          <mxGeometry relative="1" as="geometry" />
        </mxCell>
        <mxCell id="WebsGutZkE8XCqcuteTi-27" value="Tên TG" style="ellipse;whiteSpace=wrap;html=1;fontFamily=Helvetica;fontSize=11;fontColor=default;" vertex="1" parent="1">
          <mxGeometry x="495" y="10" width="70" height="40" as="geometry" />
        </mxCell>
        <mxCell id="WebsGutZkE8XCqcuteTi-36" style="edgeStyle=none;shape=connector;rounded=0;orthogonalLoop=1;jettySize=auto;html=1;entryX=0.5;entryY=1;entryDx=0;entryDy=0;labelBackgroundColor=default;fontFamily=Helvetica;fontSize=11;fontColor=default;endArrow=none;strokeColor=default;" edge="1" parent="1" source="WebsGutZkE8XCqcuteTi-28" target="WebsGutZkE8XCqcuteTi-4">
          <mxGeometry relative="1" as="geometry" />
        </mxCell>
        <mxCell id="WebsGutZkE8XCqcuteTi-28" value="Tên CS" style="ellipse;whiteSpace=wrap;html=1;fontFamily=Helvetica;fontSize=11;fontColor=default;" vertex="1" parent="1">
          <mxGeometry x="510" y="400" width="70" height="40" as="geometry" />
        </mxCell>
        <mxCell id="WebsGutZkE8XCqcuteTi-37" style="edgeStyle=none;shape=connector;rounded=0;orthogonalLoop=1;jettySize=auto;html=1;entryX=1;entryY=0.5;entryDx=0;entryDy=0;labelBackgroundColor=default;fontFamily=Helvetica;fontSize=11;fontColor=default;endArrow=none;strokeColor=default;" edge="1" parent="1" source="WebsGutZkE8XCqcuteTi-29" target="WebsGutZkE8XCqcuteTi-4">
          <mxGeometry relative="1" as="geometry" />
        </mxCell>
        <mxCell id="WebsGutZkE8XCqcuteTi-29" value="Năm sinh" style="ellipse;whiteSpace=wrap;html=1;fontFamily=Helvetica;fontSize=11;fontColor=default;" vertex="1" parent="1">
          <mxGeometry x="600" y="370" width="70" height="40" as="geometry" />
        </mxCell>
        <mxCell id="WebsGutZkE8XCqcuteTi-38" style="edgeStyle=none;shape=connector;rounded=0;orthogonalLoop=1;jettySize=auto;html=1;exitX=0;exitY=0.5;exitDx=0;exitDy=0;labelBackgroundColor=default;fontFamily=Helvetica;fontSize=11;fontColor=default;endArrow=none;strokeColor=default;" edge="1" parent="1" source="WebsGutZkE8XCqcuteTi-30">
          <mxGeometry relative="1" as="geometry">
            <mxPoint x="590" y="340" as="targetPoint" />
          </mxGeometry>
        </mxCell>
        <mxCell id="WebsGutZkE8XCqcuteTi-30" value="Mã CS" style="ellipse;whiteSpace=wrap;html=1;fontFamily=Helvetica;fontSize=11;fontColor=default;" vertex="1" parent="1">
          <mxGeometry x="630" y="300" width="70" height="40" as="geometry" />
        </mxCell>
      </root>
    </mxGraphModel>
  </diagram>
</mxfile>
